<?xml version="1.0" standalone="no"?>
<!DOCTYPE svg PUBLIC "-//W3C//DTD SVG 1.1//EN" "http://www.w3.org/Graphics/SVG/1.1/DTD/svg11.dtd" >
<svg xmlns="http://www.w3.org/2000/svg">
<metadata>
This is a custom SVG webfont generated by Font Squirrel.
Copyright   : 251 MM 1997
Foundry     :  MM
</metadata>
<defs>
<font id="Mariontext" horiz-adv-x="1161" >
<font-face units-per-em="2048" ascent="1710" descent="-338" />
<missing-glyph horiz-adv-x="500" />
<glyph unicode=" " />
<glyph unicode="!" d="M502 0v156h157v-156h-157zM502 311v1164h157v-1164h-157z" />
<glyph unicode="&#x22;" d="M350 1087v234v154h156v-154v-234h-156zM659 1087h156v234v154h-156v-154v-234z" />
<glyph unicode="#" d="M113 156v155h233v154h-233v156h233l156 155h153l-153 -155h155l154 155h156l-154 -155h236v-156h-238v-154h238v-155h-236l-156 -156h-151l151 156h-155l-156 -156l-151 2l151 154h-233zM502 311h155v154h-155v-154z" />
<glyph unicode="$" d="M195 852v309l153 156h156v158h155v-158h232v-156h-232v-309h74l234 -234v-231l-234 -233h-74v-154h-155v154h-232v155h232v387h-156zM348 930l78 -78h78v309h-78l-78 -78v-153zM659 309l154 156v76l-154 155v-387z" />
<glyph unicode="%" d="M113 1163v156l155 156l154 -2l156 -154v-156l-156 -155h-154zM266 0v543l467 465l-2 465h156v-549l-465 -459v-467zM268 1163h154v156h-154v-156zM580 154v155l155 156h158l156 -156v-155l-156 -154h-158zM735 154h154v155h-154v-155z" />
<glyph unicode="&#x26;" d="M154 233v232l155 156l-155 155v465l235 234h232l155 -156l-2 -465l-192 -195l112 -116l156 155l158 -155l-158 -156l82 -78v-309l-234 233l-231 -233h-78zM311 311l78 -78l154 154l-117 117l-115 -115v-78zM311 932l154 -156l156 156v309l-78 78h-76l-156 -158v-229z" />
<glyph unicode="'" d="M481 1087v388h156v-388h-156z" />
<glyph unicode="(" d="M348 156v1007l311 312h154l-311 -312v-1007l309 -312h-152z" />
<glyph unicode=")" d="M348 1475h154l311 -312v-1007l-311 -312h-152l309 312v1007z" />
<glyph unicode="*" d="M195 156l233 233l-233 234l153 155l234 -233l233 231l152 -153l-236 -228l236 -239l-152 -154l-233 231l-232 -231z" />
<glyph unicode="+" d="M195 623v153h772v-153h-772zM504 311v772h153v-772h-153z" />
<glyph unicode="," d="M264 -233l234 233v154h155v-154l-233 -233h-156z" />
<glyph unicode="-" d="M195 623v153h772v-153h-772z" />
<glyph unicode="." d="M502 0v156h157v-156h-157z" />
<glyph unicode="/" d="M195 -156l309 312h4v1003l309 316h150l-310 -316v-1003h-4l-309 -312h-149z" />
<glyph unicode="0" d="M154 231v697l235 233h387l232 -233v-697l-232 -231h-387zM309 309l158 -155h231l154 151v541l-154 160h-231l-158 -156v-541z" />
<glyph unicode="1" d="M195 0v156h313v772l-156 -156l-157 156l235 233h234v-1005h303v-156h-772z" />
<glyph unicode="2" d="M195 0v233l544 543l76 76l-145 156h-162l-156 -156l-157 154l157 155h379l236 -233v-152l-623 -620h623v-156h-772z" />
<glyph unicode="3" d="M195 -158h464l154 156v309l-154 156h-311v155h311l154 154v78l-151 156h-467v155h538l234 -233v-232l-160 -155l160 -156v-465l-232 -233h-540v155z" />
<glyph unicode="4" d="M154 0v618l542 543h158v-1007h154v-154h-154v-311h-156v311h-544zM309 154h389v774l-389 -387v-387z" />
<glyph unicode="5" d="M195 -156h538l78 78v387l-156 156h-383v696h695v-155h-537v-385h303l234 -234v-543l-156 -155h-616v155z" />
<glyph unicode="6" d="M195 233v930l313 312h309v-156h-231l-234 -234v-387l156 156h225l234 -233v-388l-234 -233h-303zM352 311l156 -155h149l154 155v232l-154 155h-71l-234 -233v-154z" />
<glyph unicode="7" d="M195 307l620 465v234h-620v155h772v-155v-312l-619 -465l2 -542h-155v620z" />
<glyph unicode="8" d="M195 156v311l231 231l-231 232v231l309 314h153l310 -314v-231l-232 -232l232 -231v-315l-154 -152h-465zM350 233l76 -77h311l78 77v156l-233 232l-232 -232v-156zM350 1008l232 -232l233 234v75l-233 234l-232 -234v-77z" />
<glyph unicode="9" d="M195 854v387l233 234h303l236 -234v-930l-314 -311h-303v156h232l233 233v387l-156 -155h-231zM350 932l154 -156h78l233 234v153l-156 156h-155l-154 -156v-231z" />
<glyph unicode=":" d="M502 0v156h157v-156h-157zM502 541v155h155v-155h-155z" />
<glyph unicode=";" d="M264 -233l234 233v154h155v-154l-233 -233h-156zM502 541v155h155v-155h-155z" />
<glyph unicode="&#x3c;" d="M195 772l387 389v-233l-156 -156l156 -154v-233z" />
<glyph unicode="=" d="M113 387v156h936v-156h-936zM115 0v156h934v-156h-934z" />
<glyph unicode="&#x3e;" d="M580 385v233l155 154l-155 156v233l387 -389z" />
<glyph unicode="?" d="M195 1241l231 234h313l232 -234v-309l-383 -389v-230h-162v308l389 389v153l-156 156h-77l-234 -234zM426 0v156h162v-156h-162z" />
<glyph unicode="@" d="M113 233v695l235 233h465l78 -80v-153v-381v-4v-78l-154 -154h-157l-156 154v231l156 156h41h32h82v158h-309l-156 -156v-543l156 -155h309h99h94h121v-156h-236h-465zM580 465h155v231h-155v-231z" />
<glyph unicode="A" d="M154 0v1241l233 234h387l234 -234v-1241h-156v543h-543v-543h-155zM307 698h545v465l-156 156h-233l-156 -156v-465z" />
<glyph unicode="B" d="M154 1475h620l232 -234v-233l-232 -232l234 -233v-310l-234 -233h-618zM307 156h389l156 153v158l-234 231h-311v-542zM307 854h311l234 233v76l-158 156h-387v-465z" />
<glyph unicode="C" d="M154 233v1008l233 234h621v-156h-545l-156 -156v-852l156 -155h545v-156h-623z" />
<glyph unicode="D" d="M154 0v1397v78h620l234 -234v-1008l-234 -233h-620zM307 156h389l156 155v852l-156 156h-389v-1163z" />
<glyph unicode="E" d="M154 0v1475h854v-156h-701v-465h545v-156h-545v-542h701v-156h-854z" />
<glyph unicode="F" d="M154 0v1475h854v-156h-701v-465h545v-156h-545v-698h-153z" />
<glyph unicode="G" d="M154 231v1012l233 232h621v-154h-545l-156 -156v-856l156 -155l389 389h-234v155h390v-698h-158v309l-309 -309h-156z" />
<glyph unicode="H" d="M154 0v1475h153v-621h545v621h156v-1475h-156v698h-545v-698h-153z" />
<glyph unicode="I" d="M195 0v158h309v1163h-309v154h772v-154h-308v-1163h308v-158h-772z" />
<glyph unicode="J" d="M154 156l155 155l154 -155h311l76 77v1242h158v-1319l-156 -156h-543z" />
<glyph unicode="K" d="M154 0v1475h153v-699h156l389 387v312h156v-390l-310 -309l310 -311v-465h-158v389l-232 232h-311v-621h-153z" />
<glyph unicode="L" d="M154 0v1475h153v-1319h701v-156h-854z" />
<glyph unicode="M" d="M113 0v1475h157l310 -312l309 312h160v-1475h-160v1241l-232 -231h-155l-232 231v-1241h-157z" />
<glyph unicode="N" d="M154 0v1475h153l545 -543v543h156v-1475h-156v698l-545 543v-1241h-153z" />
<glyph unicode="O" d="M154 233v1008l233 234h389l232 -234v-1008l-232 -233h-391zM307 311l156 -155h233l156 155v852l-156 156h-233l-156 -156v2v-854z" />
<glyph unicode="P" d="M154 0v1475h622l232 -234v-465l-232 -233h-469v-543h-153zM307 698h389l156 156v309l-156 156h-389v-621z" />
<glyph unicode="Q" d="M154 311v852l309 312h235l310 -312v-852l-78 -78l78 -77l-154 -156l-78 78l-78 -78h-233zM309 389l232 -233h157l-155 155l155 154l156 -154v774l-233 234h-80l-232 -234v-696z" />
<glyph unicode="R" d="M154 0v1475h622l232 -234v-465l-232 -233l232 -232v-311h-156v233l-311 310h-234v-543h-153zM307 698h389l156 156v309l-156 156h-389v-621z" />
<glyph unicode="S" d="M154 0v156h542l156 155v232l-156 155h-311l-231 232v311l231 234h623v-156h-545l-156 -154v-157l156 -154h313l232 -260v-361l-232 -233h-622z" />
<glyph unicode="T" d="M113 1319v156h936v-156h-390v-1319h-157v1319h-389z" />
<glyph unicode="U" d="M154 233v1242h153v-1164l156 -155h233l154 155v1164h158v-1242l-232 -233h-391z" />
<glyph unicode="V" d="M113 465v1010h155v-932l312 -310l309 310v932h160v-1010l-469 -465z" />
<glyph unicode="W" d="M113 233v1242h157v-1164l76 -78l156 156v1086h155v-1086l156 -156l76 78v1164h160v-1242l-236 -233l-233 233l-234 -233z" />
<glyph unicode="X" d="M154 0v467l309 309l-309 309v390h153v-310l234 -233h80l233 231v312h154v-390l-310 -309l310 -309v-467h-156v389l-231 232h-80l-234 -232l2 -389h-155z" />
<glyph unicode="Y" d="M154 156l153 155l156 -155h233l154 155v310h-465l-231 233v621h153v-543l156 -156h387v699h158v-1242l-232 -233h-469z" />
<glyph unicode="Z" d="M154 0v465l698 698v156h-698v156h852v-390l-699 -696v-233h701v-156h-854z" />
<glyph unicode="[" />
<glyph unicode="\" d="M195 1475h151l309 -316v-1003l312 -312h-150l-313 312v1003z" />
<glyph unicode="]" />
<glyph unicode="^" d="M348 1243l234 232l231 -232h-154l-77 78l-78 -78h-156z" />
<glyph unicode="_" d="M0 -147h1161v-74h-1161v74z" />
<glyph unicode="`" d="M334 1460l110 127l363 -291l-78 -100z" />
<glyph unicode="a" d="M154 154v311l155 156h387v305l-75 82h-390v153h467l154 -155v-697l156 -153l-156 -156l-76 78l-78 -78h-389zM307 233l78 -77h233l78 77v232h-311l-78 -78v-154z" />
<glyph unicode="b" d="M154 156l73 75v1244h158v-467l156 153h311l156 -153v-775l-232 -233h-313l-78 78l-76 -78zM385 311l156 -155h155l156 155v621l-78 78h-156l-233 -234v-465z" />
<glyph unicode="c" d="M195 231v695l235 233h381l156 -153l-156 -156l-154 156h-151l-156 -156v-543l156 -153h151l154 153l156 -153l-156 -156h-381z" />
<glyph unicode="d" d="M154 233v775l155 153h309l156 -153v467h158v-1242l76 -77l-158 -156l-76 78l-78 -78h-311zM307 311l156 -155h155l156 155v465l-233 234h-156l-78 -78v-621z" />
<glyph unicode="e" d="M195 156v850l153 155h465l154 -155v-463h-619v-310l78 -77h231l156 153l154 -153l-154 -156h-465zM348 698h467v232l-78 78h-311l-78 -78v-232z" />
<glyph unicode="f" d="M195 0v1319l153 156h619v-156h-541l-78 -78v-387h467v-156h-465v-698h-155z" />
<glyph unicode="g" d="M154 233v773l157 155h385l78 -78l78 78l156 -155l-78 -78v-1084l-156 -155h-463l-153 155l153 156l156 -156h233l76 78v309l-153 -153h-312zM311 309l78 -76h234l153 156v541l-76 78h-311l-78 -78v-621z" />
<glyph unicode="h" d="M195 0v1475h155v-469l156 155h305l156 -155v-1006h-154v926l-76 82h-153l-234 -232v-776h-155z" />
<glyph unicode="i" d="M195 1010v151h469v-1005h303v-156h-770v156h311v854h-313zM514 1319v156h150v-156h-150z" />
<glyph unicode="j" d="M195 -156l153 156l156 -156h235l78 78v1086h-467v153h617v-1317l-154 -155h-465zM817 1319v156h150v-156h-150z" />
<glyph unicode="k" d="M195 0v1475h155v-701l387 387h152v-153l-387 -387l465 -465v-156h-152l-465 465v-465h-155z" />
<glyph unicode="l" d="M195 0v156h311v1163h-311v156h467v-1319h305v-156h-772z" />
<glyph unicode="m" d="M113 0v1006l155 155l80 -78l80 78h152l77 -78l80 78h156l156 -155v-1006h-156v928l-78 78h-80l-78 -78v-928h-155v928l-78 78h-78l-78 -78v-928h-155z" />
<glyph unicode="n" d="M154 1006l155 155l76 -78l78 78h391l154 -155v-1006h-158v924l-76 82h-233l-156 -156v-850h-158v928z" />
<glyph unicode="o" d="M195 233v695l235 233h303l234 -233v-695l-234 -233h-303zM352 309l156 -153h149l154 153v541l-154 156h-149l-156 -156v-541z" />
<glyph unicode="p" d="M154 1006l155 155l76 -78l78 78h313l232 -233v-774l-156 -154h-311l-156 154v-465h-154v1239zM385 387l233 -233h156l78 77v621l-156 156h-155l-156 -156v-465z" />
<glyph unicode="q" d="M154 154v774l231 233h311l78 -78l76 78l158 -155l-78 -78v-1239h-156v465l-156 -154h-309zM307 231l78 -77h156l233 233v465l-156 156h-155l-156 -156v-621z" />
<glyph unicode="r" d="M154 1006l155 155l76 -78l78 78h391l154 -155l-158 -156l-152 156h-157l-156 -156v-850h-158v928z" />
<glyph unicode="s" d="M195 698v308l157 155h543v-153h-465l-78 -78v-154l78 -78h303l234 -233v-232l-234 -233h-457v156h381l154 153v78l-154 156h-305z" />
<glyph unicode="t" d="M195 233v1242h153v-314h467v-153h-465v-697l156 -155h461v-156h-537z" />
<glyph unicode="u" d="M154 156v1005h155v-923l76 -82h233l156 155v850h158v-928l76 -77l-158 -156l-76 78l-78 -78h-389z" />
<glyph unicode="v" d="M195 233v928h151v-774l234 -231l231 231v774h156v-928l-234 -233h-303z" />
<glyph unicode="w" d="M113 156v1005h153v-928l78 -77h78l78 77v928h155v-928l78 -77h84l78 77v928h154v-1005l-154 -156h-240l-77 78l-80 -78h-230z" />
<glyph unicode="x" d="M195 0v231l309 312v75l-309 310v233h155v-155l232 -234l233 234v155h152v-233l-310 -310v-75l310 -312v-231h-152v156l-233 231l-232 -231v-156h-155z" />
<glyph unicode="y" d="M195 233v928h157v-852l156 -153h303v1005h156v-1161v-78l-234 -233h-381v155h305l154 156h6h-387z" />
<glyph unicode="z" d="M195 0v309l620 621v78h-620v153h620h152v-307l-623 -621v-77h623v-156h-539h-233z" />
<glyph unicode="{" d="M348 156v1007l311 312h154l-311 -312v-1007l309 -312h-152z" />
<glyph unicode="|" d="M512 1475h137v-1788h-135z" />
<glyph unicode="}" d="M348 1475h154l311 -312v-1007l-311 -312h-152l309 312v1007z" />
<glyph unicode="~" />
<glyph unicode="&#xa0;" />
<glyph unicode="&#xa1;" d="M502 0v1163h157v-1163h-157zM502 1319v156h157v-156h-157z" />
<glyph unicode="&#xa2;" />
<glyph unicode="&#xa3;" d="M154 156l231 233v234h-231v153h231v387l313 312h230v-156h-154l-233 -232v-311h311v-153h-311v-312l155 -155h312v-156h-80h-310l-155 156v2l-156 -156z" />
<glyph unicode="&#xa4;" />
<glyph unicode="&#xa5;" />
<glyph unicode="&#xa7;" />
<glyph unicode="&#xa8;" d="M348 1319v156h156v-156h-156zM348 1319v156h156v-156h-156zM657 1319v156h154v-156h-154zM657 1319v156h154v-156h-154z" />
<glyph unicode="&#xa9;" d="M113 231v699l235 231h467l234 -231v-699l-234 -231h-467zM270 309l156 -155h307l156 155v543l-156 156h-307l-156 -156v-543zM346 387v387l158 156h153l154 -156v-78h-156l-75 78l-78 -78v-231l78 -78l75 76l156 2v-80l-156 -154h-153z" />
<glyph unicode="&#xaa;" />
<glyph unicode="&#xab;" d="M195 776l387 389v-233l-156 -156l156 -153v-234zM580 778l387 387v-233l-156 -154l156 -155v-234z" />
<glyph unicode="&#xac;" d="M0 623v153h1161v-596h-178v443h-983z" />
<glyph unicode="&#xad;" d="M195 623v153h772v-153h-772z" />
<glyph unicode="&#xae;" d="M113 231v699l235 231h469l234 -231v-699l-234 -231h-469zM270 309l156 -155h307l156 155v543l-156 156h-307l-156 -156v-543zM346 309v465l158 156h153l154 -156v-78v-78l-156 -153h156v-156h-156l-153 156v-156h-156zM502 618h78l75 78l-75 78l-78 -78v-78z" />
<glyph unicode="&#xaf;" d="M295 1249v129h637v-129h-637z" />
<glyph unicode="&#xb0;" d="M195 854v387l233 234h303l236 -234v-387l-240 -233h-299zM350 932l154 -156h151l160 156v231l-156 156h-155l-154 -156v-231z" />
<glyph unicode="&#xb1;" />
<glyph unicode="&#xb2;" d="M195 0v233l544 543l76 76l-145 156h-162l-156 -156l-157 154l157 155h379l236 -233v-152l-623 -620h623v-156h-772z" />
<glyph unicode="&#xb3;" d="M195 -158h464l154 156v309l-154 156h-311v155h311l154 154v78l-151 156h-467v155h538l234 -233v-232l-160 -155l160 -156v-465l-232 -233h-540v155z" />
<glyph unicode="&#xb4;" d="M575 1241l80 78v156h154v-156l-78 -78h-156z" />
<glyph unicode="&#xb5;" />
<glyph unicode="&#x3bc;" />
<glyph unicode="&#xb6;" />
<glyph unicode="&#xb7;" />
<glyph unicode="&#xb8;" d="M309 -309l154 155v154h155v-154l-155 -155h-154z" />
<glyph unicode="&#xb9;" d="M195 0v156h313v772l-156 -156l-157 156l235 233h234v-1005h303v-156h-772z" />
<glyph unicode="&#xba;" d="M195 233v695l235 233h303l234 -233v-695l-234 -233h-303zM203 311l608 613h4h150h-4l-609 -613h-149zM352 309l156 -153h149l154 153v541l-154 156h-149l-156 -156v-541z" />
<glyph unicode="&#xbb;" d="M195 385v233l155 156l-155 154v233l387 -387zM580 385v233l155 154l-155 156v233l387 -389z" />
<glyph unicode="&#xbc;" horiz-adv-x="3483" d="M195 0v156h313v772l-156 -156l-157 156l235 233h234v-1005h303v-156h-772zM2476 0v618l543 543h157v-1007h154v-154h-154v-311h-155v311h-545zM2632 154h389v774l-389 -387v-387z" />
<glyph unicode="&#xbd;" horiz-adv-x="3483" d="M195 0v156h313v772l-156 -156l-157 156l235 233h234v-1005h303v-156h-772zM2517 0v233l545 543l76 76l-146 156h-162l-155 -156l-158 154l158 155h379l235 -233v-152l-623 -620h623v-156h-772z" />
<glyph unicode="&#xbe;" horiz-adv-x="3483" d="M195 -158h464l154 156v309l-154 156h-311v155h311l154 154v78l-151 156h-467v155h538l234 -233v-232l-160 -155l160 -156v-465l-232 -233h-540v155zM2476 0v618l543 543h157v-1007h154v-154h-154v-311h-155v311h-545zM2632 154h389v774l-389 -387v-387z" />
<glyph unicode="&#xbf;" d="M195 233v310l383 389v229h161v-307l-389 -389v-154l156 -155h78l233 233l154 -156l-232 -233h-313zM578 1319v156h161v-156h-161z" />
<glyph unicode="&#xc0;" d="M154 0v1241l233 234h387l234 -234v-1241h-156v543h-543v-543h-155zM307 698h545v465l-156 156h-233l-156 -156v-465zM492 1475v155h153v-155h-153z" />
<glyph unicode="&#xc1;" d="M154 0v1241l233 234h387l234 -234v-1241h-156v543h-543v-543h-155zM307 698h545v465l-156 156h-233l-156 -156v-465zM618 1475l80 77v156h154v-156l-78 -77h-156z" />
<glyph unicode="&#xc2;" d="M154 0v1241l233 234h-41l234 233l231 -233h-37l234 -234v-1241h-156v543h-543v-543h-155zM307 698h545v465l-156 156h-233l-156 -156v-465zM502 1475h155l-77 77z" />
<glyph unicode="&#xc3;" />
<glyph unicode="&#xc4;" d="M154 0v1241l233 234h387l234 -234v-1241h-156v543h-543v-543h-155zM307 698h545v465l-156 156h-233l-156 -156v-465z" />
<glyph unicode="&#xc5;" d="M154 0v940l233 234h117l-156 157v232l156 155h158l153 -155v-232l-153 -153l112 -4l234 -234v-940h-156v543h-543v-543h-155zM307 698h545v185l-156 155h-233l-156 -155v-185zM504 1331h155v232h-155v-232z" />
<glyph unicode="&#xc6;" d="M113 0v1241l233 234l154 -2l78 -78v78h471v-154h-316v-467h160v-154h-160v-544l316 2v-156l-471 -2v2v545h-310v-545h-155zM266 700h312v312v151l-154 154v2l-158 -156v-463z" />
<glyph unicode="&#xc7;" d="M154 233v1008l233 234h621v-156h-545l-156 -156v-852l156 -155h545v-156h-623zM309 -309l154 155v154h155v-154l-155 -155h-154z" />
<glyph unicode="&#xc8;" d="M154 0v1475h338v155h153v-155h363v-156h-701v-465h545v-156h-545v-542h701v-156h-854z" />
<glyph unicode="&#xc9;" d="M154 0v1475h338v155h153v-155h363v-156h-701v-465h545v-156h-545v-542h701v-156h-854z" />
<glyph unicode="&#xca;" d="M154 0v1475h192l234 233l231 -233h197v-156h-701v-465h545v-156h-545v-542h701v-156h-854zM502 1475h155l-77 77z" />
<glyph unicode="&#xcb;" d="M154 0v1475h194v155h156v-155h153v155h154v-155h197v-156h-701v-465h545v-156h-545v-542h701v-156h-854z" />
<glyph unicode="&#xcc;" d="M195 0v158h309v1163h-309v154h309v155h153v-155h310v-154h-308v-1163h308v-158h-772z" />
<glyph unicode="&#xcd;" d="M195 0v158h309v1163h-309v154h772v-154h-308v-1163h308v-158h-772zM659 1475l80 77v156h154v-156l-78 -77h-156z" />
<glyph unicode="&#xce;" d="M195 0v158h309v1163h-309v154h151l234 233l231 -233h156v-154h-308v-1163h308v-158h-772zM502 1475h155l-77 77z" />
<glyph unicode="&#xcf;" d="M195 0v158h309v1163h-309v154h155v155h154v-155h155v155h154v-155h154v-154h-308v-1163h308v-158h-772z" />
<glyph unicode="&#xd0;" d="M0 623v153h698v-153h-698zM154 0v1475h620l234 -234v-1008l-234 -233h-620zM307 156h389l156 155v852l-156 156h-389v-1163z" />
<glyph unicode="&#xd1;" />
<glyph unicode="&#xd2;" d="M154 233v1008l233 234h111v155h153v-155h125l232 -234v-1008l-232 -233h-391zM307 311l156 -155h233l156 155v852l-156 156h-233l-156 -156v2v-854z" />
<glyph unicode="&#xd3;" d="M154 233v1008l233 234h389l232 -234v-1008l-232 -233h-391zM307 311l156 -155h233l156 155v852l-156 156h-233l-156 -154v-854zM618 1475l80 77v156h154v-156l-78 -77h-156z" />
<glyph unicode="&#xd4;" d="M154 233v1008l233 234h-41l234 233l231 -233h-35l232 -234v-1008l-232 -233h-391zM307 311l156 -155h233l156 155v852l-156 156h-233l-156 -156v2v-854zM502 1475h155l-77 77z" />
<glyph unicode="&#xd5;" />
<glyph unicode="&#xd6;" d="M154 233v1008l233 234h-39v155h156v-155h153v155h154v-155h-35l232 -234v-1008l-232 -233h-391zM307 311l156 -155h233l156 155v852l-156 156h-233l-156 -156v2v-854z" />
<glyph unicode="&#xd8;" d="M154 233v1008l233 234h389l232 -234v-1008l-232 -233h-391zM156 430l712 715h4l127 -103h-4l-743 -749zM307 311l156 -155h233l156 155v852l-156 156h-233l-156 -156v2v-854z" />
<glyph unicode="&#xd9;" d="M154 233v1242h153v-1164l156 -155h233l154 155v1164h158v-1242l-232 -233h-391zM494 1552v156h153v-156l80 -77h-156z" />
<glyph unicode="&#xda;" d="M154 233v1242h153v-1164l156 -155h233l154 155v1164h158v-1242l-232 -233h-391zM451 1475l79 77v156h154v-156l-78 -77h-155z" />
<glyph unicode="&#xdb;" d="M154 233v1242h153v-1164l156 -155h233l154 155v1164h158v-1242l-232 -233h-391zM342 1475l233 233l232 -233h-154l-78 77l-77 -77h-156z" />
<glyph unicode="&#xdc;" d="M154 233v1242h153v-1164l156 -155h233l154 155v1164h158v-1242l-232 -233h-391z" />
<glyph unicode="&#xdd;" d="M154 156l153 155l156 -155h233l154 155v310h-465l-231 233v621h153v-543l156 -156h387v699h158v-1242l-232 -233h-469zM467 1651l80 78v155h153v-155l-77 -78h-156z" />
<glyph unicode="&#xde;" horiz-adv-x="1705" d="M229 0v1475h156v-316h389l234 -231v-387l-232 -234h-391v-307h-156zM385 463h311l156 155v230l-160 160h-307v-545z" />
<glyph unicode="&#xdf;" />
<glyph unicode="&#xe0;" d="M154 154v311l155 156h387v305l-75 82h-390v153h467l154 -155v-697l156 -153l-156 -156l-76 78l-78 -78h-389zM307 233l78 -77h233l78 77v232h-311l-78 -78v-154zM385 1319v156h154v-156l77 -78h-153z" />
<glyph unicode="&#xe1;" d="M154 154v311l155 156h387v305l-75 82h-390v153h467l154 -155v-697l156 -153l-156 -156l-76 78l-78 -78h-389zM307 233l78 -77h233l78 77v232h-311l-78 -78v-154zM575 1241l80 78v156h154v-156l-78 -78h-156z" />
<glyph unicode="&#xe2;" d="M154 154v311l155 156h387v305l-75 82h-390v153h467l154 -155v-697l156 -153l-156 -156l-76 78l-78 -78h-389zM305 1241l234 234l231 -234h-154l-77 78l-78 -78h-156zM307 233l78 -77h233l78 77v232h-311l-78 -78v-154z" />
<glyph unicode="&#xe3;" />
<glyph unicode="&#xe4;" d="M154 154v311l155 156h387v305l-75 82h-390v153h467l154 -155v-697l156 -153l-156 -156l-76 78l-78 -78h-389zM307 233l78 -77h233l78 77v232h-311l-78 -78v-154zM348 1319v156h156v-156h-156zM348 1319v156h156v-156h-156zM657 1319v156h154v-156h-154zM657 1319v156h154 v-156h-154z" />
<glyph unicode="&#xe5;" d="M154 154v311l155 156h387v305l-75 82h-390v153h156l-156 154v231l156 156h158l153 -156v-231l-153 -154h153l154 -155v-697l156 -153l-156 -156l-76 78l-78 -78h-389zM307 233l78 -77h233l78 77v232h-311l-78 -78v-154zM387 1315h156v231h-156v-231z" />
<glyph unicode="&#xe6;" d="M113 154v311l155 156h310v305l-76 82h-312v153h388l77 -78l78 78h164l154 -155v-463h-312v-312l78 -75h78l156 153v-153l-154 -156h-164l-78 78l-77 -78h-310zM266 231l80 -77h156l76 77v234h-232l-80 -78v-156zM733 698h158v230l-76 80h-4l-78 -78v-232z" />
<glyph unicode="&#xe7;" d="M195 233v695l233 233h385l154 -153l-156 -154l-152 154h-153l-156 -154v-543l156 -155h156l149 153l154 -155l-150 -154h-156v-152l-155 -157h-154l154 157v152h-76z" />
<glyph unicode="&#xe8;" d="M195 156v850l153 155h465l154 -155v-463h-619v-310l78 -77h231l156 153l154 -153l-154 -156h-465zM348 698h467v232l-78 78h-311l-78 -78v-232zM348 1319v156h154v-156l80 -78h-156z" />
<glyph unicode="&#xe9;" d="M195 156v850l153 155h465l154 -155v-463h-619v-310l78 -77h231l156 153l154 -153l-154 -156h-465zM348 698h467v232l-78 78h-311l-78 -78v-232zM575 1241l80 78v156h154v-156l-78 -78h-156z" />
<glyph unicode="&#xea;" d="M195 156v850l153 155h465l154 -155v-463h-619v-310l78 -77h231l156 153l154 -153l-154 -156h-465zM348 698h467v232l-78 78h-311l-78 -78v-232zM348 1243l234 232l233 -232h-156l-77 78l-78 -78h-156z" />
<glyph unicode="&#xeb;" d="M195 156v850l153 155h465l154 -155v-463h-619v-310l78 -77h231l156 153l154 -153l-154 -156h-465zM348 698h467v232l-78 78h-311l-78 -78v-232zM348 1319v156h156v-156h-156zM657 1319v156h154v-156h-154z" />
<glyph unicode="&#xec;" />
<glyph unicode="&#xed;" d="M195 1010v151h469v-1005h303v-156h-770v156h311v854h-313zM506 1241l80 78v156h153v-156l-77 -78h-156z" />
<glyph unicode="&#xee;" />
<glyph unicode="&#xef;" d="M195 1010v151h469v-1005h303v-156h-770v156h311v854h-313zM348 1319v156h156v-156h-156zM348 1319v156h156v-156h-156zM657 1319v156h154v-156h-154zM657 1319v156h154v-156h-154z" />
<glyph unicode="&#xf0;" d="M195 233v695l235 233h303l234 -233v-695l-234 -233h-303zM346 1470v156h309l314 -311v-930h-158v852l-233 233h-232zM352 309l156 -153h149l154 153v541l-154 156h-149l-156 -156v-541zM430 1317l303 309h150l-303 -309h-150z" />
<glyph unicode="&#xf1;" />
<glyph unicode="&#xf2;" d="M195 233v695l235 233h303l234 -233v-695l-234 -233h-303zM348 1319v156h154v-156l80 -78h-156zM352 309l156 -153h149l154 153v541l-154 156h-149l-156 -156v-541z" />
<glyph unicode="&#xf3;" d="M195 233v695l235 233h303l234 -233v-695l-234 -233h-303zM352 309l156 -153h149l154 153v541l-154 156h-149l-156 -156v-541zM575 1241l80 78v156h154v-156l-78 -78h-156z" />
<glyph unicode="&#xf4;" d="M195 233v695l235 233h303l234 -233v-695l-234 -233h-303zM348 1243l234 232l233 -232h-156l-77 78l-78 -78h-156zM352 309l156 -153h149l154 153v541l-154 156h-149l-156 -156v-541z" />
<glyph unicode="&#xf5;" />
<glyph unicode="&#xf6;" d="M195 233v695l235 233h303l234 -233v-695l-234 -233h-303zM348 1319v156h156v-156h-156zM348 1319v156h156v-156h-156zM352 309l156 -153h149l154 153v541l-154 156h-149l-156 -156v-541zM657 1319v156h154v-156h-154zM657 1319v156h154v-156h-154z" />
<glyph unicode="&#xf7;" d="M51 670v135h1127v-135h-1127zM502 430q0 47 32.5 80t80 33t80 -33t32.5 -80t-32.5 -80t-80 -33t-80 33t-32.5 80zM502 1044.5q0 47.5 32.5 80t80 32.5t80 -32.5t32.5 -80t-32.5 -80t-80 -32.5t-80 32.5t-32.5 80z" />
<glyph unicode="&#xf8;" />
<glyph unicode="&#xf9;" d="M154 156v1005h155v-923l76 -82h233l156 155v850h158v-928l76 -77l-158 -156l-76 78l-78 -78h-389zM385 1319v156h154v-156l77 -78h-153z" />
<glyph unicode="&#xfa;" d="M154 156v1005h155v-923l76 -82h233l156 155v850h158v-928l76 -77l-158 -156l-76 78l-78 -78h-389zM385 1241l78 78v156h153v-156l-77 -78h-154z" />
<glyph unicode="&#xfb;" d="M154 156v1005h155v-923l76 -82h233l156 155v850h158v-928l76 -77l-158 -156l-76 78l-78 -78h-389zM348 1243l234 232l233 -232h-156l-77 78l-78 -78h-156z" />
<glyph unicode="&#xfc;" d="M154 156v1005h155v-923l76 -82h233l156 155v850h158v-928l76 -77l-158 -156l-76 78l-78 -78h-389zM307 1319v156h156v-156h-156zM307 1319v156h156v-156h-156zM616 1319v156h154v-156h-154zM616 1319v156h154v-156h-154z" />
<glyph unicode="&#xfd;" d="M195 233v928h157v-852l156 -153h303v1005h156v-1161v-78l-234 -233h-381v155h305l154 156h6h-387zM467 1241l80 78v156h153v-156l-77 -78h-156z" />
<glyph unicode="&#xfe;" d="M229 -313v1788h156v-467l156 153h311l156 -153v-775l-232 -233h-313l-78 78v-391h-156zM385 311l156 -155h155l156 155v621l-78 78h-156l-233 -234v-465z" />
<glyph unicode="&#xff;" d="M195 233v928h157v-852l156 -153h303v1005h156v-1161v-78l-234 -233h-381v155h305l154 156h6h-387zM348 1319v156h156v-156h-156zM348 1319v156h156v-156h-156zM657 1319v156h154v-156h-154zM657 1319v156h154v-156h-154z" />
<glyph unicode="&#x152;" d="M113 231v1008l231 236h158l76 -80v80h471v-156h-316v-467h160v-156h-160v-540h316v-156h-471v76l-76 -76h-158zM268 309l154 -155l156 155v852l-156 156l-154 -154v-854z" />
<glyph unicode="&#x153;" d="M113 233v695l235 233h154l114 -117l117 117h162l154 -155v-463h-310v-312l78 -75h78l154 155v-155l-154 -156h-162l-115 115l-116 -115h-154zM268 309l158 -153l152 153v543l-154 156l-156 -156v-543zM733 698h156v232l-78 78l-78 -78v-232z" />
<glyph unicode="&#x178;" d="M154 156l153 155l156 -155h233l154 155v310h-465l-231 233v621h153v-543l156 -156h387v699h158v-1242l-232 -233h-469zM309 1698v155h156v-155h-156zM309 1698v155h156v-155h-156zM618 1698v155h154v-155h-154zM618 1698v155h154v-155h-154z" />
<glyph unicode="&#x2c6;" d="M305 1241l234 234l231 -234h-154l-77 78l-78 -78h-156z" />
<glyph unicode="&#x2dc;" />
<glyph unicode="&#x2013;" d="M254 670v129h721v-129h-721z" />
<glyph unicode="&#x2014;" d="M0 623v153h1161v-153h-1161z" />
<glyph unicode="&#x2018;" d="M502 1087v154l233 234h156l-234 -234v-154h-155z" />
<glyph unicode="&#x2019;" d="M248 1087l233 234l2 154h154v-154l-234 -234h-155z" />
<glyph unicode="&#x201a;" />
<glyph unicode="&#x201c;" d="M348 1087h156v154l233 234h-155l-234 -234v-154zM657 1087v154l234 234h156l-234 -234v-154h-156z" />
<glyph unicode="&#x201d;" d="M117 1087l233 234v154h156v-154l-234 -234h-155zM426 1087h156l233 234v154h-156v-154z" />
<glyph unicode="&#x201e;" />
<glyph unicode="&#x2022;" />
<glyph unicode="&#x2026;" />
<glyph unicode="&#x2039;" d="M190 772l388 389v-233l-156 -156l156 -154v-233z" />
<glyph unicode="&#x203a;" d="M578 385v233l155 154l-155 156v233l387 -389z" />
<glyph unicode="&#x20ac;" d="M0 469v154h854v-154h-854zM0 776v154h854v-154h-854zM154 233v1008l233 234h621v-156h-545l-156 -156v-852l156 -155h545v-156h-623z" />
<glyph unicode="&#x2122;" />
<glyph unicode="&#xe000;" horiz-adv-x="1160" d="M0 1160h1160v-1160h-1160v1160z" />
<glyph unicode="&#xfb01;" />
<glyph unicode="&#xfb02;" />
<glyph unicode="&#xfb03;" horiz-adv-x="3483" d="M195 0v1319l153 156h619v-156h-541l-78 -78v-387h467v-156h-465v-698h-155zM1356 0v1319l153 156h619v-156h-541l-78 -78v-387h467v-156h-465v-698h-155zM2517 1010v151h469v-1005h303v-156h-770v156h311v854h-313zM2836 1319v156h150v-156h-150z" />
<glyph unicode="&#xfb04;" horiz-adv-x="3483" d="M195 0v1319l153 156h619v-156h-541l-78 -78v-387h467v-156h-465v-698h-155zM1356 0v1319l153 156h619v-156h-541l-78 -78v-387h467v-156h-465v-698h-155zM2517 0v156h311v1163h-311v156h467v-1319h305v-156h-772z" />
</font>
</defs>
</svg>
